<?xml version="1.0" encoding="iso-8859-1"?>
<!-- Generator: Adobe Illustrator 19.0.0, SVG Export Plug-In . SVG Version: 6.00 Build 0)  -->
<svg version="1.1" id="Capa_1" xmlns="http://www.w3.org/2000/svg" xmlns:xlink="http://www.w3.org/1999/xlink" x="0px" y="0px"
	 viewBox="0 0 442.2 442.2" style="enable-background:new 0 0 442.2 442.2;" xml:space="preserve">
<path style="fill:#ED664C;" d="M340.8,233.05c29-30,47-70.8,47-115.9v-1.3h44.4c0,116.5-94.6,211.1-211.1,211.1S10,232.95,10,115.85
	h44.4v1.3c0,44.8,18,85.7,47.1,115.8c30.4,31.3,72.8,50.9,119.6,50.9S310.5,264.45,340.8,233.05z"/>
<g>
	<path style="fill:#FDC75B;" d="M387.8,115.85v1.3c0,45.1-17.9,86-47,115.9l-119.2-117.2H387.8z"/>
	<path style="fill:#FDC75B;" d="M221.6,115.85l119.2,117.3c-30.4,31.3-72.9,50.8-119.7,50.8v-0.6v-167.5H221.6z"/>
	<path style="fill:#FDC75B;" d="M221.1,283.35v0.5c-46.8,0-89.2-19.6-119.6-50.9l119.1-117.1h0.5V283.35z"/>
	<path style="fill:#FDC75B;" d="M220.6,115.85l-119.1,117.1c-29.1-30.1-47.1-70.9-47.1-115.8v-1.3H220.6z"/>
</g>
<path d="M432.2,105.35H10c-5.5,0-10,4.7-10,10.2c0,59.3,23,115,64.8,156.7c41.7,41.6,97.2,64.6,156.3,64.6
	c121.9,0,221.1-99.4,221.1-221.3C442.2,110.05,437.7,105.35,432.2,105.35z M101.9,218.05c-22.4-26.2-35.4-57.7-37.3-92.7h131.5
	L101.9,218.05z M211.1,139.25v134.3c-35.5-2.2-68.8-16.4-95.3-40.6L211.1,139.25z M231.1,139.25l95.4,93.8
	c-26.5,24.1-59.7,38.3-95.4,40.5V139.25z M340.4,218.15l-94.4-92.8h131.5C375.7,160.35,362.7,192.05,340.4,218.15z M221.1,316.65
	c-53.8,0-104.3-21-142.2-58.8c-35.6-35.5-56.2-81.5-58.6-132.5h24.3c2.1,43,19.6,83.2,49.7,114.3c33.7,34.8,78.7,54.1,126.8,54.1
	c48.2,0,93.3-19.3,126.9-54c30.1-31,47.5-71.4,49.6-114.4h24.3C416.7,232.35,328.6,316.65,221.1,316.65z"/>
<g>
</g>
<g>
</g>
<g>
</g>
<g>
</g>
<g>
</g>
<g>
</g>
<g>
</g>
<g>
</g>
<g>
</g>
<g>
</g>
<g>
</g>
<g>
</g>
<g>
</g>
<g>
</g>
<g>
</g>
</svg>
